<?xml version="1.0" encoding="UTF-8"?>
<svg xmlns="http://www.w3.org/2000/svg" xmlns:xlink="http://www.w3.org/1999/xlink" width="420" height="300" viewBox="0 0 420 300">
<defs>
<g>
<g id="glyph-0-0">
<path d="M 2.5625 0 L 2.5625 -12.816406 L 12.816406 -12.816406 L 12.816406 0 Z M 2.882812 -0.320312 L 12.496094 -0.320312 L 12.496094 -12.496094 L 2.882812 -12.496094 Z M 2.882812 -0.320312 "/>
</g>
<g id="glyph-0-1">
<path d="M 12.058594 -5.148438 L 14 -4.65625 C 13.589844 -3.058594 12.859375 -1.839844 11.800781 -1.003906 C 10.742188 -0.167969 9.449219 0.246094 7.921875 0.25 C 6.335938 0.246094 5.046875 -0.0742188 4.058594 -0.714844 C 3.066406 -1.359375 2.3125 -2.292969 1.796875 -3.515625 C 1.277344 -4.734375 1.019531 -6.042969 1.019531 -7.449219 C 1.019531 -8.972656 1.308594 -10.308594 1.894531 -11.449219 C 2.476562 -12.589844 3.308594 -13.453125 4.390625 -14.042969 C 5.464844 -14.632812 6.652344 -14.929688 7.953125 -14.929688 C 9.417969 -14.929688 10.652344 -14.554688 11.65625 -13.808594 C 12.65625 -13.058594 13.355469 -12.007812 13.75 -10.65625 L 11.835938 -10.203125 C 11.492188 -11.269531 10.996094 -12.050781 10.351562 -12.539062 C 9.703125 -13.023438 8.890625 -13.265625 7.910156 -13.269531 C 6.78125 -13.265625 5.835938 -12.996094 5.082031 -12.457031 C 4.320312 -11.917969 3.789062 -11.191406 3.484375 -10.28125 C 3.175781 -9.367188 3.023438 -8.425781 3.023438 -7.460938 C 3.023438 -6.210938 3.203125 -5.121094 3.570312 -4.191406 C 3.929688 -3.253906 4.496094 -2.558594 5.265625 -2.101562 C 6.03125 -1.636719 6.863281 -1.40625 7.761719 -1.410156 C 8.847656 -1.40625 9.769531 -1.71875 10.523438 -2.351562 C 11.277344 -2.976562 11.789062 -3.910156 12.058594 -5.148438 Z M 12.058594 -5.148438 "/>
</g>
<g id="glyph-0-2">
<path d="M 8.292969 -1.3125 C 7.621094 -0.742188 6.980469 -0.339844 6.363281 -0.109375 C 5.746094 0.125 5.082031 0.238281 4.375 0.242188 C 3.207031 0.238281 2.308594 -0.0429688 1.683594 -0.613281 C 1.050781 -1.183594 0.738281 -1.914062 0.742188 -2.804688 C 0.738281 -3.324219 0.855469 -3.800781 1.097656 -4.230469 C 1.332031 -4.660156 1.644531 -5.003906 2.027344 -5.265625 C 2.410156 -5.523438 2.839844 -5.722656 3.324219 -5.859375 C 3.675781 -5.953125 4.210938 -6.042969 4.925781 -6.128906 C 6.378906 -6.300781 7.449219 -6.507812 8.140625 -6.75 C 8.144531 -6.996094 8.148438 -7.152344 8.152344 -7.21875 C 8.148438 -7.953125 7.980469 -8.46875 7.640625 -8.773438 C 7.179688 -9.175781 6.496094 -9.378906 5.589844 -9.382812 C 4.738281 -9.378906 4.109375 -9.230469 3.710938 -8.9375 C 3.304688 -8.636719 3.007812 -8.113281 2.8125 -7.359375 L 1.050781 -7.601562 C 1.207031 -8.351562 1.472656 -8.960938 1.84375 -9.425781 C 2.207031 -9.890625 2.738281 -10.25 3.433594 -10.5 C 4.128906 -10.75 4.933594 -10.875 5.847656 -10.875 C 6.753906 -10.875 7.492188 -10.765625 8.0625 -10.554688 C 8.628906 -10.335938 9.042969 -10.066406 9.3125 -9.746094 C 9.578125 -9.417969 9.765625 -9.011719 9.875 -8.523438 C 9.929688 -8.214844 9.960938 -7.660156 9.964844 -6.859375 L 9.964844 -4.457031 C 9.960938 -2.777344 10 -1.714844 10.078125 -1.273438 C 10.15625 -0.828125 10.308594 -0.40625 10.535156 0 L 8.652344 0 C 8.460938 -0.375 8.339844 -0.8125 8.292969 -1.3125 Z M 8.140625 -5.335938 C 7.484375 -5.066406 6.503906 -4.839844 5.199219 -4.65625 C 4.453125 -4.546875 3.929688 -4.425781 3.625 -4.296875 C 3.316406 -4.160156 3.078125 -3.964844 2.914062 -3.710938 C 2.742188 -3.449219 2.660156 -3.164062 2.664062 -2.855469 C 2.660156 -2.371094 2.839844 -1.972656 3.207031 -1.652344 C 3.566406 -1.332031 4.101562 -1.171875 4.808594 -1.171875 C 5.5 -1.171875 6.117188 -1.320312 6.65625 -1.625 C 7.195312 -1.925781 7.59375 -2.34375 7.851562 -2.875 C 8.042969 -3.277344 8.136719 -3.878906 8.140625 -4.675781 Z M 8.140625 -5.335938 "/>
</g>
<g id="glyph-0-3">
<path d="M 0.992188 -7.148438 C 0.988281 -9.585938 1.644531 -11.492188 2.953125 -12.871094 C 4.261719 -14.25 5.949219 -14.941406 8.019531 -14.941406 C 9.375 -14.941406 10.597656 -14.617188 11.6875 -13.96875 C 12.773438 -13.320312 13.601562 -12.417969 14.175781 -11.261719 C 14.742188 -10.101562 15.027344 -8.785156 15.03125 -7.320312 C 15.027344 -5.828125 14.726562 -4.496094 14.128906 -3.324219 C 13.527344 -2.144531 12.679688 -1.257812 11.578125 -0.65625 C 10.476562 -0.0546875 9.285156 0.246094 8.011719 0.25 C 6.625 0.246094 5.390625 -0.0859375 4.304688 -0.75 C 3.214844 -1.417969 2.390625 -2.328125 1.832031 -3.484375 C 1.269531 -4.636719 0.988281 -5.859375 0.992188 -7.148438 Z M 2.996094 -7.121094 C 2.992188 -5.347656 3.46875 -3.953125 4.421875 -2.9375 C 5.371094 -1.914062 6.5625 -1.40625 8 -1.410156 C 9.460938 -1.40625 10.664062 -1.921875 11.609375 -2.953125 C 12.550781 -3.980469 13.023438 -5.4375 13.027344 -7.332031 C 13.023438 -8.519531 12.824219 -9.5625 12.421875 -10.457031 C 12.015625 -11.347656 11.421875 -12.039062 10.648438 -12.53125 C 9.867188 -13.019531 8.996094 -13.265625 8.03125 -13.269531 C 6.652344 -13.265625 5.46875 -12.792969 4.480469 -11.851562 C 3.488281 -10.902344 2.992188 -9.324219 2.996094 -7.121094 Z M 2.996094 -7.121094 "/>
</g>
<g id="glyph-0-4">
<path d="M 1.5625 0 L 1.5625 -14.679688 L 3.554688 -14.679688 L 11.265625 -3.15625 L 11.265625 -14.679688 L 13.128906 -14.679688 L 13.128906 0 L 11.136719 0 L 3.425781 -11.535156 L 3.425781 0 Z M 1.5625 0 "/>
</g>
<g id="glyph-1-0">
<path d="M 1.710938 0 L 1.710938 -8.546875 L 8.546875 -8.546875 L 8.546875 0 Z M 1.921875 -0.214844 L 8.332031 -0.214844 L 8.332031 -8.332031 L 1.921875 -8.332031 Z M 1.921875 -0.214844 "/>
</g>
<g id="glyph-1-1">
<path d="M 6.882812 -1.15625 L 6.882812 0 L 0.414062 0 C 0.402344 -0.289062 0.449219 -0.566406 0.554688 -0.835938 C 0.714844 -1.273438 0.976562 -1.707031 1.34375 -2.136719 C 1.703125 -2.5625 2.230469 -3.054688 2.917969 -3.617188 C 3.980469 -4.484375 4.695312 -5.175781 5.070312 -5.691406 C 5.441406 -6.199219 5.628906 -6.683594 5.632812 -7.136719 C 5.628906 -7.613281 5.460938 -8.011719 5.121094 -8.339844 C 4.78125 -8.664062 4.335938 -8.828125 3.792969 -8.832031 C 3.210938 -8.828125 2.75 -8.65625 2.402344 -8.3125 C 2.054688 -7.964844 1.878906 -7.484375 1.875 -6.871094 L 0.640625 -6.996094 C 0.722656 -7.917969 1.042969 -8.617188 1.59375 -9.101562 C 2.144531 -9.582031 2.886719 -9.824219 3.820312 -9.828125 C 4.757812 -9.824219 5.5 -9.566406 6.046875 -9.046875 C 6.59375 -8.523438 6.867188 -7.875 6.871094 -7.109375 C 6.867188 -6.714844 6.785156 -6.332031 6.628906 -5.953125 C 6.464844 -5.574219 6.199219 -5.175781 5.832031 -4.757812 C 5.457031 -4.339844 4.839844 -3.765625 3.980469 -3.039062 C 3.253906 -2.429688 2.792969 -2.019531 2.589844 -1.804688 C 2.386719 -1.585938 2.214844 -1.367188 2.082031 -1.15625 Z M 6.882812 -1.15625 "/>
</g>
</g>
</defs>
<path fill="none" stroke-width="0.0333333" stroke-linecap="butt" stroke-linejoin="miter" stroke="rgb(0%, 0%, 0%)" stroke-opacity="1" stroke-miterlimit="10" d="M 2.866006 4.741837 L 2.866006 4.253183 " transform="matrix(51.27282, 0, 0, 51.27282, 113.305679, 21.817944)"/>
<path fill="none" stroke-width="0.0333333" stroke-linecap="butt" stroke-linejoin="miter" stroke="rgb(0%, 0%, 0%)" stroke-opacity="1" stroke-miterlimit="10" d="M 2.652077 3.780299 L 2.31747 3.587092 " transform="matrix(51.27282, 0, 0, 51.27282, 113.305679, 21.817944)"/>
<path fill="none" stroke-width="0.0333333" stroke-linecap="butt" stroke-linejoin="miter" stroke="rgb(0%, 0%, 0%)" stroke-opacity="1" stroke-miterlimit="10" d="M 2.568806 3.924594 L 2.234199 3.731388 " transform="matrix(51.27282, 0, 0, 51.27282, 113.305679, 21.817944)"/>
<path fill="none" stroke-width="0.0333333" stroke-linecap="butt" stroke-linejoin="miter" stroke="rgb(0%, 0%, 0%)" stroke-opacity="1" stroke-miterlimit="10" d="M 3.308721 3.744416 L 3.456216 3.65924 " transform="matrix(51.27282, 0, 0, 51.27282, 113.305679, 21.817944)"/>
<path fill="none" stroke-width="0.0333333" stroke-linecap="butt" stroke-linejoin="miter" stroke="rgb(0%, 0%, 0%)" stroke-opacity="1" stroke-miterlimit="10" d="M 0.866058 1.241871 L 0.866058 0.753141 " transform="matrix(51.27282, 0, 0, 51.27282, 113.305679, 21.817944)"/>
<path fill="none" stroke-width="0.0333333" stroke-linecap="butt" stroke-linejoin="miter" stroke="rgb(0%, 0%, 0%)" stroke-opacity="1" stroke-miterlimit="10" d="M 0.652129 0.280257 L 0.317522 0.0870501 " transform="matrix(51.27282, 0, 0, 51.27282, 113.305679, 21.817944)"/>
<path fill="none" stroke-width="0.0333333" stroke-linecap="butt" stroke-linejoin="miter" stroke="rgb(0%, 0%, 0%)" stroke-opacity="1" stroke-miterlimit="10" d="M 0.568782 0.424628 L 0.234175 0.231422 " transform="matrix(51.27282, 0, 0, 51.27282, 113.305679, 21.817944)"/>
<path fill="none" stroke-width="0.0333333" stroke-linecap="butt" stroke-linejoin="miter" stroke="rgb(0%, 0%, 0%)" stroke-opacity="1" stroke-miterlimit="10" d="M 1.308697 0.24445 L 1.456192 0.159274 " transform="matrix(51.27282, 0, 0, 51.27282, 113.305679, 21.817944)"/>
<g fill="rgb(18.216041%, 75.900173%, 0%)" fill-opacity="1">
<use xlink:href="#glyph-0-1" x="100.121094" y="285.523438"/>
<use xlink:href="#glyph-0-2" x="114.93213" y="285.523438"/>
</g>
<g fill="rgb(18.216041%, 75.900173%, 0%)" fill-opacity="1">
<use xlink:href="#glyph-1-1" x="126.777344" y="274.347656"/>
</g>
<path fill-rule="nonzero" fill="rgb(18.216041%, 75.900173%, 0%)" fill-opacity="1" d="M 133.660156 269.390625 L 136.820312 269.390625 L 136.820312 266.230469 L 138.1875 266.230469 L 138.1875 269.390625 L 141.347656 269.390625 L 141.347656 270.757812 L 138.1875 270.757812 L 138.1875 273.917969 L 136.820312 273.917969 L 136.820312 270.757812 L 133.660156 270.757812 "/>
<g fill="rgb(100%, 5.1%, 5.1%)" fill-opacity="1">
<use xlink:href="#glyph-0-3" x="252.242188" y="285.527344"/>
</g>
<path fill-rule="nonzero" fill="rgb(100%, 5.1%, 5.1%)" fill-opacity="1" d="M 268.984375 269.378906 L 276.675781 269.378906 L 276.675781 270.746094 L 268.984375 270.746094 "/>
<g fill="rgb(19%, 31%, 97.000003%)" fill-opacity="1">
<use xlink:href="#glyph-0-4" x="252.910156" y="234.25"/>
</g>
<path fill-rule="nonzero" fill="rgb(19%, 31%, 97.000003%)" fill-opacity="1" d="M 267.746094 218.566406 L 270.90625 218.566406 L 270.90625 215.40625 L 272.273438 215.40625 L 272.273438 218.566406 L 275.433594 218.566406 L 275.433594 219.933594 L 272.273438 219.933594 L 272.273438 223.09375 L 270.90625 223.09375 L 270.90625 219.933594 L 267.746094 219.933594 "/>
<g fill="rgb(100%, 5.1%, 5.1%)" fill-opacity="1">
<use xlink:href="#glyph-0-3" x="207.839844" y="208.621094"/>
</g>
<g fill="rgb(100%, 5.1%, 5.1%)" fill-opacity="1">
<use xlink:href="#glyph-0-3" x="296.648438" y="208.621094"/>
</g>
<path fill-rule="nonzero" fill="rgb(100%, 5.1%, 5.1%)" fill-opacity="1" d="M 313.386719 192.472656 L 321.078125 192.472656 L 321.078125 193.839844 L 313.386719 193.839844 "/>
<g fill="rgb(100%, 5.1%, 5.1%)" fill-opacity="1">
<use xlink:href="#glyph-0-3" x="149.699219" y="106.074219"/>
</g>
<path fill-rule="nonzero" fill="rgb(100%, 5.1%, 5.1%)" fill-opacity="1" d="M 166.4375 89.925781 L 174.128906 89.925781 L 174.128906 91.292969 L 166.4375 91.292969 "/>
<g fill="rgb(19%, 31%, 97.000003%)" fill-opacity="1">
<use xlink:href="#glyph-0-4" x="150.363281" y="54.792969"/>
</g>
<path fill-rule="nonzero" fill="rgb(19%, 31%, 97.000003%)" fill-opacity="1" d="M 165.203125 39.113281 L 168.363281 39.113281 L 168.363281 35.953125 L 169.730469 35.953125 L 169.730469 39.113281 L 172.890625 39.113281 L 172.890625 40.480469 L 169.730469 40.480469 L 169.730469 43.640625 L 168.363281 43.640625 L 168.363281 40.480469 L 165.203125 40.480469 "/>
<g fill="rgb(100%, 5.1%, 5.1%)" fill-opacity="1">
<use xlink:href="#glyph-0-3" x="105.292969" y="29.164062"/>
</g>
<g fill="rgb(100%, 5.1%, 5.1%)" fill-opacity="1">
<use xlink:href="#glyph-0-3" x="194.101562" y="29.164062"/>
</g>
<path fill-rule="nonzero" fill="rgb(100%, 5.1%, 5.1%)" fill-opacity="1" d="M 210.84375 13.015625 L 218.535156 13.015625 L 218.535156 14.382812 L 210.84375 14.382812 "/>
</svg>
