<?xml version="1.0" encoding="UTF-8"?>
<svg xmlns="http://www.w3.org/2000/svg" xmlns:xlink="http://www.w3.org/1999/xlink" width="420" height="300" viewBox="0 0 420 300">
<defs>
<g>
<g id="glyph-0-0">
<path d="M 2.5625 0 L 2.5625 -12.816406 L 12.816406 -12.816406 L 12.816406 0 Z M 2.882812 -0.320312 L 12.496094 -0.320312 L 12.496094 -12.496094 L 2.882812 -12.496094 Z M 2.882812 -0.320312 "/>
</g>
<g id="glyph-0-1">
<path d="M 1.683594 0 L 1.683594 -14.679688 L 11.585938 -14.679688 L 11.585938 -12.949219 L 3.625 -12.949219 L 3.625 -8.402344 L 10.515625 -8.402344 L 10.515625 -6.667969 L 3.625 -6.667969 L 3.625 0 Z M 1.683594 0 "/>
</g>
<g id="glyph-0-2">
<path d="M 8.632812 -3.425781 L 10.496094 -3.195312 C 10.199219 -2.101562 9.65625 -1.257812 8.863281 -0.660156 C 8.066406 -0.0585938 7.050781 0.238281 5.816406 0.242188 C 4.257812 0.238281 3.023438 -0.238281 2.117188 -1.195312 C 1.203125 -2.152344 0.75 -3.496094 0.75 -5.226562 C 0.75 -7.015625 1.210938 -8.402344 2.132812 -9.390625 C 3.054688 -10.378906 4.25 -10.875 5.71875 -10.875 C 7.140625 -10.875 8.300781 -10.390625 9.203125 -9.421875 C 10.101562 -8.453125 10.550781 -7.089844 10.554688 -5.335938 C 10.550781 -5.226562 10.550781 -5.066406 10.546875 -4.855469 L 2.613281 -4.855469 C 2.679688 -3.6875 3.007812 -2.792969 3.605469 -2.171875 C 4.195312 -1.550781 4.9375 -1.242188 5.828125 -1.242188 C 6.488281 -1.242188 7.050781 -1.414062 7.519531 -1.761719 C 7.984375 -2.109375 8.355469 -2.664062 8.632812 -3.425781 Z M 2.714844 -6.339844 L 8.652344 -6.339844 C 8.570312 -7.230469 8.34375 -7.898438 7.972656 -8.351562 C 7.394531 -9.042969 6.648438 -9.390625 5.738281 -9.394531 C 4.90625 -9.390625 4.210938 -9.113281 3.648438 -8.5625 C 3.082031 -8.003906 2.769531 -7.265625 2.714844 -6.339844 Z M 2.714844 -6.339844 "/>
</g>
<g id="glyph-0-3">
<path d="M 0.992188 -7.148438 C 0.988281 -9.585938 1.644531 -11.492188 2.953125 -12.871094 C 4.261719 -14.25 5.949219 -14.941406 8.019531 -14.941406 C 9.375 -14.941406 10.597656 -14.617188 11.6875 -13.96875 C 12.773438 -13.320312 13.601562 -12.417969 14.175781 -11.261719 C 14.742188 -10.101562 15.027344 -8.785156 15.03125 -7.320312 C 15.027344 -5.828125 14.726562 -4.496094 14.128906 -3.324219 C 13.527344 -2.144531 12.679688 -1.257812 11.578125 -0.65625 C 10.476562 -0.0546875 9.285156 0.246094 8.011719 0.25 C 6.625 0.246094 5.390625 -0.0859375 4.304688 -0.75 C 3.214844 -1.417969 2.390625 -2.328125 1.832031 -3.484375 C 1.269531 -4.636719 0.988281 -5.859375 0.992188 -7.148438 Z M 2.996094 -7.121094 C 2.992188 -5.347656 3.46875 -3.953125 4.421875 -2.9375 C 5.371094 -1.914062 6.5625 -1.40625 8 -1.410156 C 9.460938 -1.40625 10.664062 -1.921875 11.609375 -2.953125 C 12.550781 -3.980469 13.023438 -5.4375 13.027344 -7.332031 C 13.023438 -8.519531 12.824219 -9.5625 12.421875 -10.457031 C 12.015625 -11.347656 11.421875 -12.039062 10.648438 -12.53125 C 9.867188 -13.019531 8.996094 -13.265625 8.03125 -13.269531 C 6.652344 -13.265625 5.46875 -12.792969 4.480469 -11.851562 C 3.488281 -10.902344 2.992188 -9.324219 2.996094 -7.121094 Z M 2.996094 -7.121094 "/>
</g>
<g id="glyph-0-4">
<path d="M 1.5625 0 L 1.5625 -14.679688 L 3.554688 -14.679688 L 11.265625 -3.15625 L 11.265625 -14.679688 L 13.128906 -14.679688 L 13.128906 0 L 11.136719 0 L 3.425781 -11.535156 L 3.425781 0 Z M 1.5625 0 "/>
</g>
<g id="glyph-1-0">
<path d="M 1.710938 0 L 1.710938 -8.546875 L 8.546875 -8.546875 L 8.546875 0 Z M 1.921875 -0.214844 L 8.332031 -0.214844 L 8.332031 -8.332031 L 1.921875 -8.332031 Z M 1.921875 -0.214844 "/>
</g>
<g id="glyph-1-1">
<path d="M 0.574219 -2.582031 L 1.777344 -2.742188 C 1.910156 -2.0625 2.144531 -1.570312 2.480469 -1.269531 C 2.808594 -0.96875 3.214844 -0.820312 3.691406 -0.820312 C 4.253906 -0.820312 4.730469 -1.015625 5.121094 -1.40625 C 5.511719 -1.796875 5.707031 -2.28125 5.707031 -2.863281 C 5.707031 -3.414062 5.523438 -3.867188 5.164062 -4.226562 C 4.800781 -4.582031 4.34375 -4.761719 3.792969 -4.765625 C 3.5625 -4.761719 3.28125 -4.71875 2.945312 -4.632812 L 3.078125 -5.6875 C 3.15625 -5.675781 3.222656 -5.671875 3.269531 -5.675781 C 3.78125 -5.671875 4.242188 -5.804688 4.652344 -6.074219 C 5.058594 -6.339844 5.261719 -6.75 5.265625 -7.308594 C 5.261719 -7.746094 5.113281 -8.113281 4.816406 -8.40625 C 4.519531 -8.691406 4.132812 -8.835938 3.664062 -8.839844 C 3.195312 -8.835938 2.808594 -8.6875 2.496094 -8.398438 C 2.183594 -8.101562 1.980469 -7.664062 1.894531 -7.078125 L 0.695312 -7.289062 C 0.839844 -8.09375 1.171875 -8.71875 1.695312 -9.164062 C 2.210938 -9.605469 2.859375 -9.824219 3.636719 -9.828125 C 4.171875 -9.824219 4.664062 -9.710938 5.113281 -9.484375 C 5.5625 -9.253906 5.90625 -8.941406 6.144531 -8.546875 C 6.382812 -8.148438 6.503906 -7.726562 6.503906 -7.285156 C 6.503906 -6.855469 6.386719 -6.472656 6.160156 -6.128906 C 5.929688 -5.78125 5.59375 -5.503906 5.152344 -5.300781 C 5.730469 -5.164062 6.183594 -4.886719 6.503906 -4.46875 C 6.824219 -4.046875 6.984375 -3.519531 6.984375 -2.890625 C 6.984375 -2.03125 6.671875 -1.308594 6.046875 -0.71875 C 5.421875 -0.125 4.632812 0.167969 3.683594 0.171875 C 2.824219 0.167969 2.113281 -0.0820312 1.546875 -0.59375 C 0.976562 -1.101562 0.652344 -1.765625 0.574219 -2.582031 Z M 0.574219 -2.582031 "/>
</g>
</g>
</defs>
<path fill="none" stroke-width="0.0333333" stroke-linecap="butt" stroke-linejoin="miter" stroke="rgb(0%, 0%, 0%)" stroke-opacity="1" stroke-miterlimit="10" d="M 2.866032 4.741837 L 2.866032 4.253183 " transform="matrix(51.27282, 0, 0, 51.27282, 68.171559, 21.817944)"/>
<path fill="none" stroke-width="0.0333333" stroke-linecap="butt" stroke-linejoin="miter" stroke="rgb(0%, 0%, 0%)" stroke-opacity="1" stroke-miterlimit="10" d="M 2.652103 3.780299 L 2.317496 3.587092 " transform="matrix(51.27282, 0, 0, 51.27282, 68.171559, 21.817944)"/>
<path fill="none" stroke-width="0.0333333" stroke-linecap="butt" stroke-linejoin="miter" stroke="rgb(0%, 0%, 0%)" stroke-opacity="1" stroke-miterlimit="10" d="M 2.568756 3.924594 L 2.234149 3.731388 " transform="matrix(51.27282, 0, 0, 51.27282, 68.171559, 21.817944)"/>
<path fill="none" stroke-width="0.0333333" stroke-linecap="butt" stroke-linejoin="miter" stroke="rgb(0%, 0%, 0%)" stroke-opacity="1" stroke-miterlimit="10" d="M 3.30867 3.744416 L 3.456242 3.65924 " transform="matrix(51.27282, 0, 0, 51.27282, 68.171559, 21.817944)"/>
<path fill="none" stroke-width="0.0333333" stroke-linecap="butt" stroke-linejoin="miter" stroke="rgb(0%, 0%, 0%)" stroke-opacity="1" stroke-miterlimit="10" d="M 0.866008 1.241871 L 0.866008 0.753141 " transform="matrix(51.27282, 0, 0, 51.27282, 68.171559, 21.817944)"/>
<path fill="none" stroke-width="0.0333333" stroke-linecap="butt" stroke-linejoin="miter" stroke="rgb(0%, 0%, 0%)" stroke-opacity="1" stroke-miterlimit="10" d="M 0.652079 0.280257 L 0.317472 0.0870501 " transform="matrix(51.27282, 0, 0, 51.27282, 68.171559, 21.817944)"/>
<path fill="none" stroke-width="0.0333333" stroke-linecap="butt" stroke-linejoin="miter" stroke="rgb(0%, 0%, 0%)" stroke-opacity="1" stroke-miterlimit="10" d="M 0.568808 0.424628 L 0.234201 0.231422 " transform="matrix(51.27282, 0, 0, 51.27282, 68.171559, 21.817944)"/>
<path fill="none" stroke-width="0.0333333" stroke-linecap="butt" stroke-linejoin="miter" stroke="rgb(0%, 0%, 0%)" stroke-opacity="1" stroke-miterlimit="10" d="M 1.308722 0.24445 L 1.456218 0.159274 " transform="matrix(51.27282, 0, 0, 51.27282, 68.171559, 21.817944)"/>
<path fill="none" stroke-width="0.0333333" stroke-linecap="butt" stroke-linejoin="miter" stroke="rgb(0%, 0%, 0%)" stroke-opacity="1" stroke-miterlimit="10" d="M 4.598111 1.241871 L 4.598111 0.753141 " transform="matrix(51.27282, 0, 0, 51.27282, 68.171559, 21.817944)"/>
<path fill="none" stroke-width="0.0333333" stroke-linecap="butt" stroke-linejoin="miter" stroke="rgb(0%, 0%, 0%)" stroke-opacity="1" stroke-miterlimit="10" d="M 4.384182 0.280257 L 4.049575 0.0870501 " transform="matrix(51.27282, 0, 0, 51.27282, 68.171559, 21.817944)"/>
<path fill="none" stroke-width="0.0333333" stroke-linecap="butt" stroke-linejoin="miter" stroke="rgb(0%, 0%, 0%)" stroke-opacity="1" stroke-miterlimit="10" d="M 4.300835 0.424628 L 3.966228 0.231422 " transform="matrix(51.27282, 0, 0, 51.27282, 68.171559, 21.817944)"/>
<path fill="none" stroke-width="0.0333333" stroke-linecap="butt" stroke-linejoin="miter" stroke="rgb(0%, 0%, 0%)" stroke-opacity="1" stroke-miterlimit="10" d="M 5.04075 0.24445 L 5.188245 0.159274 " transform="matrix(51.27282, 0, 0, 51.27282, 68.171559, 21.817944)"/>
<g fill="rgb(84.498388%, 38.40836%, 19.20418%)" fill-opacity="1">
<use xlink:href="#glyph-0-1" x="55.789062" y="285.402344"/>
<use xlink:href="#glyph-0-2" x="68.316856" y="285.402344"/>
</g>
<g fill="rgb(84.498388%, 38.40836%, 19.20418%)" fill-opacity="1">
<use xlink:href="#glyph-1-1" x="80.007812" y="274.582031"/>
</g>
<path fill-rule="nonzero" fill="rgb(84.498388%, 38.40836%, 19.20418%)" fill-opacity="1" d="M 86.988281 269.625 L 90.148438 269.625 L 90.148438 266.464844 L 91.515625 266.464844 L 91.515625 269.625 L 94.675781 269.625 L 94.675781 270.992188 L 91.515625 270.992188 L 91.515625 274.152344 L 90.148438 274.152344 L 90.148438 270.992188 L 86.988281 270.992188 "/>
<g fill="rgb(100%, 5.1%, 5.1%)" fill-opacity="1">
<use xlink:href="#glyph-0-3" x="207.109375" y="285.527344"/>
</g>
<path fill-rule="nonzero" fill="rgb(100%, 5.1%, 5.1%)" fill-opacity="1" d="M 223.851562 269.378906 L 231.542969 269.378906 L 231.542969 270.746094 L 223.851562 270.746094 "/>
<g fill="rgb(19%, 31%, 97.000003%)" fill-opacity="1">
<use xlink:href="#glyph-0-4" x="207.777344" y="234.25"/>
</g>
<path fill-rule="nonzero" fill="rgb(19%, 31%, 97.000003%)" fill-opacity="1" d="M 222.613281 218.566406 L 225.773438 218.566406 L 225.773438 215.40625 L 227.140625 215.40625 L 227.140625 218.566406 L 230.300781 218.566406 L 230.300781 219.933594 L 227.140625 219.933594 L 227.140625 223.09375 L 225.773438 223.09375 L 225.773438 219.933594 L 222.613281 219.933594 "/>
<g fill="rgb(100%, 5.1%, 5.1%)" fill-opacity="1">
<use xlink:href="#glyph-0-3" x="162.707031" y="208.621094"/>
</g>
<g fill="rgb(100%, 5.1%, 5.1%)" fill-opacity="1">
<use xlink:href="#glyph-0-3" x="251.511719" y="208.621094"/>
</g>
<path fill-rule="nonzero" fill="rgb(100%, 5.1%, 5.1%)" fill-opacity="1" d="M 268.253906 192.472656 L 275.945312 192.472656 L 275.945312 193.839844 L 268.253906 193.839844 "/>
<g fill="rgb(100%, 5.1%, 5.1%)" fill-opacity="1">
<use xlink:href="#glyph-0-3" x="104.5625" y="106.074219"/>
</g>
<path fill-rule="nonzero" fill="rgb(100%, 5.1%, 5.1%)" fill-opacity="1" d="M 121.304688 89.925781 L 128.996094 89.925781 L 128.996094 91.292969 L 121.304688 91.292969 "/>
<g fill="rgb(19%, 31%, 97.000003%)" fill-opacity="1">
<use xlink:href="#glyph-0-4" x="105.230469" y="54.792969"/>
</g>
<path fill-rule="nonzero" fill="rgb(19%, 31%, 97.000003%)" fill-opacity="1" d="M 120.066406 39.113281 L 123.226562 39.113281 L 123.226562 35.953125 L 124.59375 35.953125 L 124.59375 39.113281 L 127.753906 39.113281 L 127.753906 40.480469 L 124.59375 40.480469 L 124.59375 43.640625 L 123.226562 43.640625 L 123.226562 40.480469 L 120.066406 40.480469 "/>
<g fill="rgb(100%, 5.1%, 5.1%)" fill-opacity="1">
<use xlink:href="#glyph-0-3" x="60.160156" y="29.164062"/>
</g>
<g fill="rgb(100%, 5.1%, 5.1%)" fill-opacity="1">
<use xlink:href="#glyph-0-3" x="148.96875" y="29.164062"/>
</g>
<path fill-rule="nonzero" fill="rgb(100%, 5.1%, 5.1%)" fill-opacity="1" d="M 165.707031 13.015625 L 173.398438 13.015625 L 173.398438 14.382812 L 165.707031 14.382812 "/>
<g fill="rgb(100%, 5.1%, 5.1%)" fill-opacity="1">
<use xlink:href="#glyph-0-3" x="295.917969" y="106.074219"/>
</g>
<path fill-rule="nonzero" fill="rgb(100%, 5.1%, 5.1%)" fill-opacity="1" d="M 312.65625 89.925781 L 320.347656 89.925781 L 320.347656 91.292969 L 312.65625 91.292969 "/>
<g fill="rgb(19%, 31%, 97.000003%)" fill-opacity="1">
<use xlink:href="#glyph-0-4" x="296.582031" y="54.792969"/>
</g>
<path fill-rule="nonzero" fill="rgb(19%, 31%, 97.000003%)" fill-opacity="1" d="M 311.421875 39.113281 L 314.582031 39.113281 L 314.582031 35.953125 L 315.949219 35.953125 L 315.949219 39.113281 L 319.109375 39.113281 L 319.109375 40.480469 L 315.949219 40.480469 L 315.949219 43.640625 L 314.582031 43.640625 L 314.582031 40.480469 L 311.421875 40.480469 "/>
<g fill="rgb(100%, 5.1%, 5.1%)" fill-opacity="1">
<use xlink:href="#glyph-0-3" x="251.511719" y="29.164062"/>
</g>
<g fill="rgb(100%, 5.1%, 5.1%)" fill-opacity="1">
<use xlink:href="#glyph-0-3" x="340.320312" y="29.164062"/>
</g>
<path fill-rule="nonzero" fill="rgb(100%, 5.1%, 5.1%)" fill-opacity="1" d="M 357.058594 13.015625 L 364.75 13.015625 L 364.75 14.382812 L 357.058594 14.382812 "/>
</svg>
