<?xml version="1.0" encoding="UTF-8"?>
<svg xmlns="http://www.w3.org/2000/svg" xmlns:xlink="http://www.w3.org/1999/xlink" width="420" height="300" viewBox="0 0 420 300">
<defs>
<g>
<g id="glyph-0-0">
<path d="M 3.359375 0 L 3.359375 -16.789062 L 16.789062 -16.789062 L 16.789062 0 Z M 3.777344 -0.417969 L 16.367188 -0.417969 L 16.367188 -16.367188 L 3.777344 -16.367188 Z M 3.777344 -0.417969 "/>
</g>
<g id="glyph-0-1">
<path d="M 1.96875 0 L 1.96875 -19.226562 L 4.511719 -19.226562 L 4.511719 -9.691406 L 14.058594 -19.226562 L 17.507812 -19.226562 L 9.441406 -11.4375 L 17.863281 0 L 14.507812 0 L 7.660156 -9.730469 L 4.511719 -6.664062 L 4.511719 0 Z M 1.96875 0 "/>
</g>
<g id="glyph-0-2">
<path d="M 1.296875 -9.363281 C 1.292969 -12.554688 2.152344 -15.050781 3.867188 -16.859375 C 5.582031 -18.664062 7.792969 -19.570312 10.503906 -19.570312 C 12.277344 -19.570312 13.878906 -19.144531 15.304688 -18.296875 C 16.730469 -17.445312 17.816406 -16.261719 18.566406 -14.746094 C 19.3125 -13.226562 19.6875 -11.507812 19.6875 -9.585938 C 19.6875 -7.636719 19.292969 -5.890625 18.503906 -4.355469 C 17.714844 -2.8125 16.597656 -1.648438 15.160156 -0.859375 C 13.714844 -0.0664062 12.160156 0.328125 10.492188 0.328125 C 8.679688 0.328125 7.0625 -0.109375 5.636719 -0.984375 C 4.210938 -1.859375 3.128906 -3.050781 2.398438 -4.5625 C 1.660156 -6.074219 1.292969 -7.675781 1.296875 -9.363281 Z M 3.921875 -9.324219 C 3.917969 -7.003906 4.542969 -5.179688 5.789062 -3.847656 C 7.035156 -2.511719 8.597656 -1.84375 10.480469 -1.847656 C 12.390625 -1.84375 13.964844 -2.519531 15.207031 -3.867188 C 16.441406 -5.214844 17.0625 -7.125 17.0625 -9.601562 C 17.0625 -11.164062 16.796875 -12.53125 16.269531 -13.699219 C 15.738281 -14.863281 14.964844 -15.765625 13.949219 -16.414062 C 12.929688 -17.054688 11.785156 -17.378906 10.519531 -17.378906 C 8.714844 -17.378906 7.164062 -16.757812 5.867188 -15.523438 C 4.566406 -14.28125 3.917969 -12.214844 3.921875 -9.324219 Z M 3.921875 -9.324219 "/>
</g>
<g id="glyph-0-3">
<path d="M 1.207031 -6.175781 L 3.605469 -6.386719 C 3.714844 -5.425781 3.980469 -4.636719 4.398438 -4.019531 C 4.8125 -3.402344 5.457031 -2.902344 6.332031 -2.523438 C 7.203125 -2.140625 8.1875 -1.949219 9.285156 -1.953125 C 10.253906 -1.949219 11.109375 -2.09375 11.855469 -2.386719 C 12.597656 -2.671875 13.152344 -3.070312 13.515625 -3.574219 C 13.875 -4.074219 14.054688 -4.621094 14.058594 -5.21875 C 14.054688 -5.820312 13.882812 -6.347656 13.535156 -6.800781 C 13.183594 -7.25 12.605469 -7.628906 11.804688 -7.933594 C 11.285156 -8.136719 10.144531 -8.449219 8.378906 -8.871094 C 6.613281 -9.292969 5.375 -9.691406 4.667969 -10.074219 C 3.75 -10.550781 3.066406 -11.148438 2.617188 -11.863281 C 2.164062 -12.574219 1.9375 -13.371094 1.941406 -14.257812 C 1.9375 -15.222656 2.214844 -16.128906 2.765625 -16.976562 C 3.316406 -17.816406 4.121094 -18.457031 5.179688 -18.898438 C 6.238281 -19.332031 7.414062 -19.550781 8.707031 -19.554688 C 10.132812 -19.550781 11.390625 -19.324219 12.480469 -18.867188 C 13.566406 -18.40625 14.402344 -17.730469 14.992188 -16.839844 C 15.574219 -15.949219 15.890625 -14.9375 15.9375 -13.8125 L 13.496094 -13.628906 C 13.363281 -14.839844 12.921875 -15.753906 12.164062 -16.378906 C 11.40625 -16.996094 10.289062 -17.308594 8.8125 -17.3125 C 7.273438 -17.308594 6.152344 -17.027344 5.449219 -16.464844 C 4.746094 -15.902344 4.394531 -15.222656 4.394531 -14.425781 C 4.394531 -13.734375 4.640625 -13.164062 5.140625 -12.722656 C 5.625 -12.273438 6.90625 -11.816406 8.976562 -11.351562 C 11.042969 -10.878906 12.460938 -10.472656 13.234375 -10.125 C 14.351562 -9.609375 15.175781 -8.953125 15.710938 -8.164062 C 16.242188 -7.367188 16.511719 -6.457031 16.511719 -5.429688 C 16.511719 -4.402344 16.21875 -3.4375 15.632812 -2.535156 C 15.046875 -1.628906 14.203125 -0.925781 13.109375 -0.425781 C 12.007812 0.078125 10.773438 0.328125 9.402344 0.328125 C 7.660156 0.328125 6.203125 0.0742188 5.027344 -0.433594 C 3.851562 -0.941406 2.929688 -1.703125 2.261719 -2.722656 C 1.589844 -3.738281 1.238281 -4.890625 1.207031 -6.175781 Z M 1.207031 -6.175781 "/>
</g>
</g>
</defs>
<path fill="none" stroke-width="0.0333333" stroke-linecap="butt" stroke-linejoin="miter" stroke="rgb(0%, 0%, 0%)" stroke-opacity="1" stroke-miterlimit="10" d="M 0.607193 1.314297 L 0.710502 1.135425 " transform="matrix(67.152641, 0, 0, 67.152641, 138.76836, 24.858682)"/>
<path fill="none" stroke-width="0.0333333" stroke-linecap="butt" stroke-linejoin="miter" stroke="rgb(0%, 0%, 0%)" stroke-opacity="1" stroke-miterlimit="10" d="M 1.082963 1.087493 L 1.41453 1.27893 " transform="matrix(67.152641, 0, 0, 67.152641, 138.76836, 24.858682)"/>
<path fill="none" stroke-width="0.0333333" stroke-linecap="butt" stroke-linejoin="miter" stroke="rgb(0%, 0%, 0%)" stroke-opacity="1" stroke-miterlimit="10" d="M 1.166262 0.943174 L 1.497888 1.134611 " transform="matrix(67.152641, 0, 0, 67.152641, 138.76836, 24.858682)"/>
<path fill="none" stroke-width="0.0333333" stroke-linecap="butt" stroke-linejoin="miter" stroke="rgb(0%, 0%, 0%)" stroke-opacity="1" stroke-miterlimit="10" d="M 0.649133 0.644589 L 0.317508 0.453094 " transform="matrix(67.152641, 0, 0, 67.152641, 138.76836, 24.858682)"/>
<path fill="none" stroke-width="0.0333333" stroke-linecap="butt" stroke-linejoin="miter" stroke="rgb(0%, 0%, 0%)" stroke-opacity="1" stroke-miterlimit="10" d="M 0.565776 0.788908 L 0.234151 0.597471 " transform="matrix(67.152641, 0, 0, 67.152641, 138.76836, 24.858682)"/>
<path fill="none" stroke-width="0.0333333" stroke-linecap="butt" stroke-linejoin="miter" stroke="rgb(0%, 0%, 0%)" stroke-opacity="1" stroke-miterlimit="10" d="M 1.021536 0.596657 L 1.204712 0.279399 " transform="matrix(67.152641, 0, 0, 67.152641, 138.76836, 24.858682)"/>
<g fill="rgb(56%, 25%, 82.999998%)" fill-opacity="1">
<use xlink:href="#glyph-0-1" x="128.851562" y="285.089844"/>
</g>
<path fill-rule="nonzero" fill="rgb(56%, 25%, 82.999998%)" fill-opacity="1" d="M 148.953125 264.550781 L 153.09375 264.550781 L 153.09375 260.410156 L 154.882812 260.410156 L 154.882812 264.550781 L 159.023438 264.550781 L 159.023438 266.339844 L 154.882812 266.339844 L 154.882812 270.480469 L 153.09375 270.480469 L 153.09375 266.339844 L 148.953125 266.339844 "/>
<g fill="rgb(56%, 25%, 82.999998%)" fill-opacity="1">
<use xlink:href="#glyph-0-1" x="263.15625" y="285.089844"/>
</g>
<path fill-rule="nonzero" fill="rgb(56%, 25%, 82.999998%)" fill-opacity="1" d="M 283.261719 264.550781 L 287.402344 264.550781 L 287.402344 260.410156 L 289.191406 260.410156 L 289.191406 264.550781 L 293.332031 264.550781 L 293.332031 266.339844 L 289.191406 266.339844 L 289.191406 270.480469 L 287.402344 270.480469 L 287.402344 266.339844 L 283.261719 266.339844 "/>
<g fill="rgb(100%, 5.1%, 5.1%)" fill-opacity="1">
<use xlink:href="#glyph-0-2" x="152.855469" y="150.792969"/>
</g>
<path fill-rule="nonzero" fill="rgb(100%, 5.1%, 5.1%)" fill-opacity="1" d="M 174.78125 129.640625 L 184.855469 129.640625 L 184.855469 131.429688 L 174.78125 131.429688 "/>
<g fill="rgb(65.677643%, 50.224078%, 7.726782%)" fill-opacity="1">
<use xlink:href="#glyph-0-3" x="188.0625" y="92.628906"/>
</g>
<g fill="rgb(100%, 5.1%, 5.1%)" fill-opacity="1">
<use xlink:href="#glyph-0-2" x="244.589844" y="126.214844"/>
</g>
<g fill="rgb(100%, 5.1%, 5.1%)" fill-opacity="1">
<use xlink:href="#glyph-0-2" x="128.277344" y="59.058594"/>
</g>
<g fill="rgb(100%, 5.1%, 5.1%)" fill-opacity="1">
<use xlink:href="#glyph-0-2" x="220.011719" y="34.480469"/>
</g>
<path fill-rule="nonzero" fill="rgb(100%, 5.1%, 5.1%)" fill-opacity="1" d="M 241.933594 13.332031 L 252.007812 13.332031 L 252.007812 15.121094 L 241.933594 15.121094 "/>
</svg>
